<svg xmlns="http://www.w3.org/2000/svg" width="1440" height="800" fill="none"><g clip-path="url(#a)"><path stroke="url(#b)" stroke-width=".5" d="M298.667 373.866h842.663m-846.93.534h851.2m-854.933 0h858.663m-863.462.533h868.262m-872.529.533H1158.4m-881.066 0h885.336M272.534 376h894.936m-899.737 0h904.537m-909.335.533h914.135m-918.936 0h923.736m-928.536.533h933.336m-938.669.534H1192m-948.799 0H1196.8m-958.932.533h964.262m-970.129.533H1208m-981.333 0h986.663m-992.53.534h998.4m-1004.265.533H1225.07m-1016.003 0H1230.93m-1027.729.533H1236.8m-1040 .534h1046.4m-1052.8.533h1059.2m-1066.133.533H1256.53m-1079.463 0H1262.93m-1092.796.534H1269.87m-1107.203.533H1277.33m-1121.597.533H1284.27M148.268 384H1291.73m-1151.462.533H1299.73m-1166.93.533h1174.4m-1182.932.534H1315.73m-1199.462.533H1323.73m-1215.997.533H1332.27M98.667 387.2H1341.33m-1251.73.533h1260.8m-1269.866.533H1359.47M70.935 389.333H1369.07m-1308.27.533h1318.4M50.667 390.4H1389.33m-1349.329.533H1400M29.334 392H1410.67m-1392.536.533H1421.87M6.4 393.6h1427.2m-1438.933.533H1445.33M-18.132 395.2H1458.13m-1489.063.533H1470.93M-44.267 396.8H1484.27m-1541.87.533h1555.2M-71.999 398.4H1512m-1598.933 1.066H1526.93m-1629.329 1.067H1542.4M-118.399 401.6H1558.4m-1693.333 1.066H1574.93m-1726.929 1.067H1592M-170.132 404.8H1610.13m-1798.929 1.6H1628.8m-1837.333 1.066H1648.53m-1877.329 1.6H1668.8m-1918.932 1.067H1690.13m-1962.663 1.6H1712.53m-2008.529 1.6H1736m-2055.999 1.6H1760m-2106.132 1.6H1786.13m-2158.929 1.6H1812.8m-2213.865 2.133H1841.07M-430.933 422.4H1870.93M-462.933 424H1902.93m-2398.929 2.666H1936M-531.2 428.8h2502.4m-2539.733 2.666H2008.53M-607.999 433.6H2048m-2698.132 3.2H2090.13m-2785.596 2.666H2135.47m-2878.936 3.2H2183.47M-794.666 446.4H2234.67m-3084.27 3.2h3139.2m-3198.399 4.266H2348.8m-3321.599 4.267H2412.8m-3454.4 4.267h3523.2m-3598.4 4.8h3673.6m-3755.2 5.333h3836.8m-3925.87 5.867h4014.94m-4112.54 6.933h4210.14m-4318.4 6.933h4426.66m-4546.13 8h4665.6m-4798.93 8.534h4932.26m-5081.6 10.133h5230.94M-2064 529.6h5568m-5760 12.8h5952m-6172.27 14.4h6392.54m-6648 17.066h6903.46m-7203.2 19.734h7502.94m-7860.27 23.466h8217.6m-8649.6 28.267h9081.6m-9614.93 35.2H5794.13m-10824 44.8H6469.87m-12382.94 58.133H7353.07m-14470.4 79.467H8557.33M-8855.47 977.6H10295.5M-11584 1157.33h24608M310.935 373.866l-20.801 1.6-23.467 1.067-25.6 2.133-29.334 1.6-32.532 2.667-37.333 2.133-42.667 3.2-49.6 3.2-58.666 3.734L-78.4 400l-84.267 5.866-103.466 6.934-131.734 8.533-172.266 11.733-234.667 16-338.671 22.4-533.33 36.267-959.47 64.533-2242.66 150.4-10868.27 732.264M319.467 373.866l-20.8 1.6-22.399 1.067-25.601 2.133-28.267 1.6-32.532 2.667-36.267 2.133-42.134 3.2-48.532 3.2L5.868 395.2l-68.267 4.8-82.134 5.866-101.866 6.934-129.067 8.533-168.533 11.733-229.867 16-332.264 22.4-522.14 36.267-940.26 64.533-2197.34 150.4-10648.53 732.264M327.467 373.866l-19.734 1.6-22.399 1.067-25.066 2.133-27.734 1.6-31.467 2.667-35.733 2.133-41.066 3.2-48 3.2-56 3.734L-46.4 400l-80.534 5.866-99.733 6.934-125.867 8.533-165.333 11.733-225.067 16-325.337 22.4-511.46 36.267-921.07 64.533-2152 150.4-10429.3 732.264M336.001 373.866l-19.733 1.6-21.868 1.067-24.532 2.133-27.201 1.6-30.934 2.667-34.666 2.133-40.533 3.2-46.4 3.2L35.2 395.2l-65.067 4.8-78.933 5.866-97.6 6.934-123.733 8.533-161.6 11.733-220.267 16-318.931 22.4-500.27 36.267-901.87 64.533-2106.66 150.4-10209.57 732.264M344.001 373.866l-19.201 1.6-21.333 1.067-24 2.133-26.667 1.6-29.865 2.667-34.135 2.133-39.466 3.2-45.867 3.2-53.333 3.734-64 4.8-77.334 5.866-95.466 6.934-121.066 8.533-157.868 11.733-216 16-311.465 22.4-490.135 36.267-882.13 64.533-2060.8 150.4-9990.37 732.264M352.534 373.866l-19.2 1.6-20.8 1.067-22.933 2.133-26.134 1.6-29.866 2.667-33.067 2.133-38.933 3.2-44.267 3.2-52.8 3.734-62.4 4.8-75.734 5.866-93.333 6.934-117.866 8.533-154.667 11.733-211.2 16-304.534 22.4-479.47 36.267-862.93 64.533-2015.47 150.4-9770.63 732.264M360.534 373.866l-18.134 1.6-20.799 1.067-22.4 2.133-25.6 1.6-28.801 2.667-33.067 2.133-37.333 3.2-43.733 3.2-51.2 3.734-61.333 4.8-73.6 5.866-91.2 6.934-115.733 8.533-151.467 11.733-205.866 16-298.134 22.4-468.264 36.267-843.74 64.533-1970.13 150.4-9551.5 732.264M369.067 373.866l-18.132 1.6-19.734 1.067-22.401 2.133-25.067 1.6-28.266 2.667-32 2.133-36.8 3.2-42.666 3.2-50.133 3.734-59.201 4.8-72.533 5.866-89.067 6.934-113.066 8.533-147.733 11.733-201.067 16-291.2 22.4-457.601 36.267-824 64.533-1925.33 150.4-9331.77 732.264M377.067 373.866l-17.6 1.6-19.199 1.067-21.868 2.133-24.532 1.6-27.201 2.667-31.466 2.133-35.734 3.2-41.599 3.2L108.8 395.2 50.667 400l-70.4 5.866-87.467 6.934-109.865 8.533-144.535 11.733-196.799 16-284.267 22.4-446.404 36.267-804.8 64.533-1880 150.4-9112.03 732.264M385.601 373.866l-17.067 1.6-19.2 1.067-21.333 2.133-23.467 1.6-27.2 2.667-30.399 2.133-35.202 3.2-40.532 3.2-47.468 3.734-57.066 4.8-68.799 5.866-84.8 6.934-107.734 8.533-140.8 11.733-192 16-277.333 22.4-436.271 36.267-785.06 64.533-1834.67 150.4-8892.3 732.264M393.601 373.866l-16.534 1.6-18.667 1.067-20.799 2.133-22.934 1.6-26.133 2.667-29.867 2.133-34.133 3.2-39.467 3.2-46.933 3.734-55.467 4.8-66.666 5.866L-67.2 412.8l-105.067 8.533-137.066 11.733-187.2 16-270.4 22.4-425.597 36.267-765.87 64.533-1789.33 150.4-8673.07 732.264M402.134 373.866l-16.533 1.6-18.134 1.067-20.266 2.133-22.401 1.6-25.599 2.667-28.801 2.133-33.6 3.2-38.4 3.2-45.333 3.734-53.866 4.8-65.6 5.866-80.534 6.934-102.4 8.533-133.867 11.733-182.4 16-264 22.4-414.4 36.267-746.67 64.533-1744 150.4L-12088 1454.93M410.134 373.866l-16 1.6-17.6 1.067-19.2 2.133-22.399 1.6-24.535 2.667-28.266 2.133-32.533 3.2-37.868 3.2-43.732 3.734-52.8 4.8-64 5.866L-27.2 412.8l-99.733 8.533-130.132 11.733-178.135 16-256.532 22.4-403.738 36.267-727.46 64.533-1698.67 150.4-8233.6 732.264M418.667 373.866l-15.466 1.6-17.067 1.067-19.199 2.133-21.334 1.6-24.534 2.667-27.199 2.133-32 3.2-36.267 3.2L182.4 395.2l-51.199 4.8-61.867 5.866-76.8 6.934-97.067 8.533-126.4 11.733-173.334 16-250.132 22.4-393.071 36.267-707.73 64.533-1653.33 150.4-8013.87 732.264M426.667 373.866l-14.934 1.6-16.532 1.067-18.667 2.133-20.801 1.6-23.465 2.667-26.667 2.133-30.934 3.2-35.732 3.2-41.601 3.734-50.133 4.8-60.266 5.866L12.8 412.8l-94.4 8.533-123.733 11.733-168 16-243.2 22.4-382.4 36.267-687.997 64.533-1608.54 150.4-7794.63 732.264M435.201 373.866l-14.933 1.6-16 1.067-18.134 2.133-20.266 1.6-22.933 2.667-25.601 2.133-29.867 3.2-34.667 3.2-41.067 3.734-48 4.8-58.666 5.866-72.533 6.934-91.734 8.533-120 11.733-163.199 16-236.801 22.4-371.199 36.267-668.801 64.533-1563.2 150.4-7574.9 732.264M443.201 373.866l-13.867 1.6-16 1.067-17.601 2.133-19.732 1.6-21.867 2.667-25.6 2.133-28.801 3.2-33.599 3.2-39.467 3.734-46.934 4.8-57.066 5.866-70.4 6.934-89.066 8.533-116.266 11.733-158.934 16-229.334 22.4-360.533 36.267-649.604 64.533-1517.86 150.4-7355.17 732.264M451.733 373.866l-13.865 1.6-15.468 1.067-17.066 2.133-18.667 1.6-21.867 2.667-24.532 2.133-27.734 3.2-33.067 3.2-37.866 3.734-45.868 4.8-54.933 5.866-68.266 6.934-86.4 8.533-113.067 11.733-154.132 16-222.401 22.4-349.867 36.267-630.397 64.533-1472 150.4-7135.97 732.264M459.733 373.866l-13.333 1.6-14.933 1.067-16.532 2.133-18.135 1.6-20.799 2.667-24 2.133-27.201 3.2-31.466 3.2-37.333 3.734-44.268 4.8-53.333 5.866-66.132 6.934-83.734 8.533-109.333 11.733-149.333 16-216 22.4-339.201 36.267L-1416 572.266l-1426.67 150.4-6916.8 732.264M468.268 373.866l-13.333 1.6-13.868 1.067-16 2.133-18.132 1.6-20.268 2.667-22.934 2.133-26.132 3.2-30.934 3.2-35.732 3.734-42.667 4.8-52.267 5.866-64 6.934-81.066 8.533-105.601 11.733-144.534 16-209.067 22.4-328.532 36.267-591.471 64.533-1381.33 150.4-6697.07 732.264M476.268 373.866l-12.267 1.6-13.867 1.067-15.467 2.133-17.6 1.6-19.199 2.667-22.401 2.133-25.599 3.2-29.334 3.2-35.2 3.734-41.066 4.8-50.134 5.866-61.866 6.934-78.4 8.533-102.401 11.733-140.266 16-202.134 22.4-317.334 36.267-572.263 64.533-1336 150.4-6477.34 732.264M484.8 373.866l-12.266 1.6-13.333 1.067-14.933 2.133-16.535 1.6-19.199 2.667-21.333 2.133-24.534 3.2-28.799 3.2-33.6 3.734-40 4.8-48.535 5.866-59.732 6.934-75.733 8.533-99.2 11.733-134.934 16-195.199 22.4-306.667 36.267-553.068 64.533-1290.67 150.4-6257.6 732.264M492.8 373.866l-11.733 1.6-12.799 1.067-14.4 2.133-16 1.6-18.135 2.667-20.798 2.133-24 3.2-27.734 3.2-32 3.734-38.933 4.8-46.4 5.866-57.6 6.934-73.067 8.533-96 11.733-130.134 16-188.267 22.4-296.532 36.267-532.798 64.533-1245.87 150.4-6037.87 732.264M501.334 373.866l-11.2 1.6-12.8 1.067-13.867 2.133-15.466 1.6-17.601 2.667-19.733 2.133-22.934 3.2-26.666 3.2-31.466 3.734L292.8 400l-45.333 5.866-55.466 6.934-70.4 8.533-92.267 11.733-125.333 16-181.867 22.4-285.334 36.267-513.6 64.533-1200.53 150.4L-8096 1454.93M509.334 373.866l-10.667 1.6-12.267 1.067-13.333 2.133-14.933 1.6-16.533 2.667-19.201 2.133-22.399 3.2-25.601 3.2-29.866 3.734L308.8 400l-43.199 5.866-53.868 6.934-67.732 8.533-88.534 11.733-121.067 16-174.399 22.4-274.667 36.267-494.404 64.533-1155.2 150.4-5598.93 732.264M517.868 373.866l-10.667 1.6-11.2 1.067-13.334 2.133-13.867 1.6-16.532 2.667-18.667 2.133-20.801 3.2-24.532 3.2-29.333 3.734L324.8 400l-41.599 5.866-51.2 6.934-65.066 8.533-85.334 11.733-116.267 16-168 22.4-263.466 36.267-475.201 64.533-1109.867 150.4-5379.2 732.264M525.868 373.866l-10.135 1.6-10.666 1.067-12.267 2.133-13.865 1.6-15.468 2.667-18.133 2.133-20.267 3.2-23.466 3.2-27.733 3.734L340.8 400l-40 5.866-49.067 6.934-62.399 8.533-81.601 11.733-111.465 16-161.067 22.4-252.801 36.267-456 64.533-1064.53 150.4-5159.47 732.264m7632-1081.064-9.6 1.6-10.666 1.067-11.734 2.133-13.333 1.6-14.933 2.667-17.067 2.133-19.199 3.2-22.933 3.2L388.8 395.2l-31.466 4.8-38.399 5.866-47.468 6.934-59.734 8.533-77.865 11.733-106.667 16-154.134 22.4-242.667 36.267-436.266 64.533-1019.204 150.4-4940.26 732.264M542.4 373.866l-9.066 1.6-10.133 1.067-11.2 2.133-12.8 1.6-13.867 2.667-16.534 2.133-18.666 3.2-21.334 3.2-25.599 3.734-29.867 4.8-36.8 5.866-44.801 6.934-57.066 8.533-75.2 11.733-101.866 16-147.2 22.4-231.466 36.267-417.067 64.533-973.868 150.4-4720.53 732.264M550.4 373.866l-8.532 1.6-9.6 1.067-10.667 2.133-11.733 1.6-13.867 2.667-15.467 2.133-17.599 3.2-20.801 3.2-24 3.734-28.8 4.8-34.667 5.866-43.2 6.934-54.4 8.533-71.466 11.733-97.067 16-140.266 22.4-220.801 36.267-397.333 64.533-929.064 150.4-4500.8 732.264M558.935 373.866l-8.535 1.6-9.066 1.067-10.133 2.133-11.2 1.6-12.8 2.667-14.933 2.133-17.067 3.2-19.2 3.2-22.934 3.734-27.733 4.8-33.066 5.866-41.067 6.934-51.734 8.533-67.734 11.733-92.266 16-133.866 22.4-209.6 36.267-378.133 64.533-883.198 150.4-4281.6 732.264M566.935 373.866l-7.468 1.6-9.067 1.067-9.6 2.133-10.666 1.6-12.266 2.667-13.867 2.133-16 3.2-18.667 3.2-21.867 3.734-25.599 4.8-31.468 5.866-38.933 6.934-49.067 8.533-64.532 11.733-87.468 16-126.933 22.4-198.933 36.267-358.933 64.533-837.871 150.4-4062.4 732.264M575.467 373.866l-7.466 1.6-8 1.067-9.601 2.133-10.132 1.6-11.201 2.667-13.334 2.133-15.465 3.2-17.601 3.2L462.4 395.2l-24.532 4.8-29.867 5.866-36.8 6.934-46.401 8.533-60.799 11.733-83.201 16-119.466 22.4-188.8 36.267-339.2 64.533-792.534 150.4-3842.67 732.264M583.467 373.866l-6.933 1.6-7.467 1.067-8.533 2.133-10.134 1.6-10.667 2.667-12.266 2.133-14.4 3.2-16.533 3.2L476.8 395.2l-22.932 4.8-28.267 5.866-34.134 6.934-44.266 8.533-57.067 11.733-78.401 16-113.066 22.4-177.6 36.267-320 64.533-747.197 150.4-3622.94 732.264M592.001 373.866l-6.4 1.6-7.467 1.067-8 2.133-9.067 1.6-10.667 2.667-11.199 2.133-13.867 3.2-15.466 3.2-18.135 3.734-21.865 4.8-26.135 5.866-32.532 6.934-41.067 8.533-53.866 11.733-73.601 16-106.133 22.4-166.933 36.267-300.801 64.533-701.87 150.4-3403.2 732.264M600.001 373.866l-5.867 1.6-6.933 1.067-7.468 2.133-8.532 1.6-9.6 2.667-11.201 2.133-12.266 3.2-14.401 3.2-17.066 3.734-20.799 4.8-24.534 5.866-30.399 6.934-38.401 8.533-50.666 11.733-68.267 16-99.733 22.4-155.734 36.267-281.6 64.533-656.533 150.4L-4104 1454.93M608.534 373.866l-5.867 1.6-6.399 1.067-6.934 2.133-8 1.6-9.066 2.667-10.134 2.133-11.734 3.2-13.333 3.2-16 3.734L502.4 400l-22.933 5.866-28.266 6.934-36.266 8.533-46.934 11.733-64 16-92.268 22.4-145.6 36.267-261.333 64.533-611.733 150.4L-3771.2 1454.93M616.534 373.866l-5.333 1.6-5.867 1.067-6.399 2.133-7.468 1.6-8 2.667-9.599 2.133-10.667 3.2-12.801 3.2-14.399 3.734L518.4 400l-21.333 5.866-26.132 6.934-33.067 8.533-43.734 11.733-59.199 16-85.334 22.4-134.934 36.267-242.133 64.533-566.4 150.4L-3438.4 1454.93M625.067 373.866l-4.799 1.6-5.333 1.067-6.401 2.133-6.4 1.6-8 2.667-8.533 2.133-9.6 3.2-11.733 3.2L550.4 395.2l-16 4.8-19.199 5.866-24.534 6.934-30.399 8.533-40 11.733-54.4 16-78.933 22.4-123.734 36.267-222.933 64.533-521.067 150.4L-3105.6 1454.93M633.067 373.866l-4.267 1.6-4.799 1.067-5.867 2.133-5.866 1.6-6.934 2.667-8 2.133-9.066 3.2-10.667 3.2-12.267 3.734L550.4 400l-17.6 5.866-21.865 6.934-28.268 8.533-36.267 11.733-49.6 16-72 22.4-113.067 36.267L8.001 572.266l-475.733 150.4-2305.598 732.264M641.601 373.866l-4.266 1.6-4.268 1.067-4.799 2.133-5.868 1.6-6.399 2.667-6.934 2.133-8 3.2-9.6 3.2-11.199 3.734-13.333 4.8-16.535 5.866-19.733 6.934-25.066 8.533-33.067 11.733-45.333 16-65.067 22.4-101.866 36.267-184.535 64.533-430.399 150.4-2085.864 732.264M649.601 373.866l-3.2 1.6-4.267 1.067-4.266 2.133-5.334 1.6-5.333 2.667-6.401 2.133-7.466 3.2-8.534 3.2-10.133 3.734-11.732 4.8-14.401 5.866L550.4 412.8l-22.399 8.533-29.334 11.733-40.533 16-58.133 22.4-91.733 36.267-164.801 64.533-385.067 150.4-1866.13 732.264M658.134 373.866l-3.199 1.6-3.733 1.067-3.734 2.133-4.266 1.6-5.334 2.667-5.334 2.133-6.4 3.2-8 3.2-8.533 3.734-10.666 4.8-12.801 5.866-15.467 6.934-20.267 8.533-25.6 11.733-35.733 16-51.199 22.4-81.068 36.267-145.599 64.533-339.734 150.4-1646.397 732.264M666.134 373.866l-2.666 1.6-3.199 1.067-3.202 2.133-3.732 1.6-4.268 2.667-4.798 2.133-5.868 3.2-6.4 3.2-7.467 3.734-9.599 4.8-10.667 5.866L590.4 412.8l-17.066 8.533-22.934 11.733-30.399 16-44.8 22.4-69.867 36.267-125.867 64.533-294.4 150.4-1427.197 732.264M674.667 373.866l-2.666 1.6-2.133 1.067-3.201 2.133-3.199 1.6-3.735 2.667-3.732 2.133-4.799 3.2-5.867 3.2-6.4 3.734-7.468 4.8-9.599 5.866-11.201 6.934-14.934 8.533-19.199 11.733-26.134 16-37.333 22.4-59.199 36.267-106.667 64.533-249.067 150.4-1208.004 732.264M682.667 373.866l-1.6 1.6-2.132 1.067-2.666 2.133-2.668 1.6-2.666 2.667-3.733 2.133-3.734 3.2-4.266 3.2-5.334 3.734-6.4 4.8-7.467 5.866-9.601 6.934-12.266 8.533-15.467 11.733-21.333 16-30.934 22.4-48.532 36.267-86.933 64.533-203.734 150.4-988.266 732.264M691.202 373.866l-1.601 1.6-1.6 1.067-2.133 2.133-1.599 1.6-2.668 2.667-2.666 2.133-2.666 3.2-3.735 3.2-4.265 3.734-4.801 4.8-5.867 5.866-7.467 6.934-9.067 8.533-12.267 11.733-16.532 16-24 22.4-37.868 36.267-67.733 64.533-158.399 150.4-768.535 732.264M699.202 373.866l-1.068 1.6-1.067 1.067-1.066 2.133-1.6 1.6-1.601 2.667-2.133 2.133-2.133 3.2-2.666 3.2-2.666 3.734-3.734 4.8-4.266 5.866-4.801 6.934-6.933 8.533-8.533 11.733-11.733 16-17.068 22.4-27.199 36.267-48.535 64.533-113.066 150.4-548.8 732.264M707.733 373.866l-.531 1.6-1.068 1.067-.533 2.133-1.067 1.6-1.066 2.667-1.067 2.133-1.066 3.2-1.602 3.2-1.599 3.734-2.133 4.8-2.666 5.866-3.201 6.934-4.266 8.533-4.801 11.733-7.466 16-10.133 22.4-16 36.267-29.334 64.533-67.734 150.4-329.6 732.264M715.733 373.866v1.6l-.531 1.067v2.133l-.535 1.6v2.667l-.533 2.133-.533 3.2-.534 3.2-.533 3.734-.533 4.8-1.066 5.866-1.067 6.934-1.068 8.533-1.598 11.733-2.668 16-3.199 22.4-5.334 36.267-10.133 64.533-22.4 150.4-109.867 732.264M724.269 373.866v1.6l.531 1.067v2.133l.535 1.6v2.667l.533 2.133.533 3.2.534 3.2.533 3.734.533 4.8 1.066 5.866 1.067 6.934 1.068 8.533 1.598 11.733 2.668 16 3.199 22.4 5.334 36.267 10.133 64.533 22.4 150.4 109.867 732.264M732.269 373.866l.531 1.6 1.068 1.067.533 2.133 1.067 1.6 1.066 2.667 1.067 2.133 1.066 3.2 1.602 3.2 1.599 3.734 2.133 4.8 2.666 5.866 3.201 6.934 4.266 8.533 4.801 11.733 7.466 16 10.133 22.4 16 36.267 29.334 64.533 67.733 150.4L1219.2 1454.93M740.8 373.866l1.068 1.6 1.067 1.067 1.066 2.133 1.6 1.6 1.601 2.667 2.133 2.133 2.133 3.2 2.666 3.2 2.666 3.734 3.734 4.8 4.266 5.866 4.801 6.934 6.933 8.533 8.533 11.733 11.733 16 17.068 22.4 27.199 36.267 48.534 64.533 113.069 150.4 548.8 732.264M748.8 373.866l1.601 1.6 1.6 1.067 2.133 2.133 1.599 1.6 2.668 2.667 2.666 2.133 2.666 3.2 3.735 3.2 4.265 3.734 4.801 4.8 5.867 5.866 7.467 6.934 9.067 8.533 12.267 11.733 16.531 16 24 22.4 37.868 36.267 67.734 64.533 158.395 150.4 768.54 732.264M757.335 373.866l1.6 1.6 2.132 1.067 2.666 2.133 2.668 1.6 2.666 2.667 3.733 2.133 3.734 3.2 4.266 3.2 5.334 3.734 6.4 4.8 7.467 5.866 9.6 6.934 12.267 8.533 15.467 11.733 21.332 16 30.934 22.4 48.533 36.267 86.936 64.533 203.73 150.4 988.27 732.264M765.335 373.866l2.666 1.6 2.133 1.067 3.201 2.133 3.199 1.6 3.735 2.667 3.732 2.133 4.799 3.2 5.867 3.2 6.4 3.734 7.467 4.8 9.6 5.866 11.201 6.934 14.934 8.533 19.199 11.733 26.133 16 37.334 22.4 59.199 36.267 106.666 64.533 249.07 150.4 1208 732.264M773.868 373.866l2.666 1.6 3.199 1.067 3.202 2.133 3.732 1.6 4.268 2.667 4.798 2.133 5.868 3.2 6.4 3.2 7.467 3.734 9.599 4.8 10.666 5.866 13.868 6.934 17.066 8.533 22.934 11.733 30.4 16 44.799 22.4 69.87 36.267 125.86 64.533 294.4 150.4 1427.2 732.264M781.868 373.866l3.199 1.6 3.733 1.067 3.734 2.133 4.266 1.6 5.334 2.667 5.334 2.133 6.4 3.2 8 3.2 8.533 3.734 10.666 4.8 12.801 5.866 15.467 6.934 20.266 8.533 25.601 11.733 35.733 16 51.195 22.4 81.07 36.267 145.6 64.533 339.73 150.4 1646.4 732.264M790.401 373.866l3.2 1.6 4.267 1.067 4.266 2.133 5.334 1.6 5.332 2.667 6.402 2.133 7.465 3.2 8.535 3.2 10.133 3.734 11.732 4.8 14.401 5.866 18.133 6.934 22.4 8.533 29.334 11.733 40.533 16 58.132 22.4 91.73 36.267 164.8 64.533 385.07 150.4 1866.13 732.264M798.401 373.866l4.266 1.6 4.268 1.067 4.798 2.133 5.868 1.6 6.4 2.667 6.934 2.133 8 3.2 9.599 3.2 11.199 3.734 13.334 4.8 16.534 5.866 19.734 6.934 25.066 8.533 33.067 11.733 45.332 16 65.07 22.4 101.86 36.267 184.54 64.533 430.4 150.4 2085.86 732.264M806.935 373.866l4.267 1.6 4.799 1.067 5.867 2.133 5.865 1.6 6.934 2.667 8 2.133 9.066 3.2 10.668 3.2 12.266 3.734 14.934 4.8 17.601 5.866 21.865 6.934 28.268 8.533 36.266 11.733 49.599 16 72 22.4 113.07 36.267L1432 572.266l475.73 150.4 2305.6 732.264M814.935 373.866l4.798 1.6 5.334 1.067 6.401 2.133 6.4 1.6 8 2.667 8.533 2.133 9.6 3.2 11.732 3.2 13.868 3.734 16 4.8 19.199 5.866 24.535 6.934 30.398 8.533 39.997 11.733 54.4 16 78.94 22.4 123.73 36.267 222.93 64.533 521.07 150.4 2524.8 732.264M823.468 373.866l5.332 1.6 5.867 1.067 6.4 2.133 7.467 1.6 8 2.667 9.6 2.133 10.666 3.2 12.801 3.2 14.4 3.734 17.6 4.8 21.334 5.866 26.132 6.934 33.063 8.533 43.74 11.733 59.2 16 85.33 22.4 134.93 36.267 242.14 64.533 566.4 150.4L4878.4 1454.93M831.468 373.866l5.867 1.6 6.398 1.067 6.934 2.133 8 1.6 9.066 2.667 10.135 2.133 11.733 3.2 13.334 3.2 16 3.734 18.666 4.8 22.933 5.866L988.8 412.8l36.27 8.533 46.93 11.733 64 16 92.27 22.4 145.6 36.267 261.33 64.533 611.73 150.4L5211.2 1454.93M840.001 373.866l5.867 1.6 6.932 1.067 7.469 2.133 8.531 1.6 9.601 2.667 11.2 2.133 12.267 3.2 14.401 3.2 17.066 3.734 20.799 4.8 24.533 5.866 30.403 6.934 38.4 8.533 50.66 11.733 68.27 16 99.73 22.4 155.74 36.267 281.6 64.533 656.53 150.4 3184 732.264M848.001 373.866l6.4 1.6 7.467 1.067 8 2.133 9.067 1.6 10.666 2.667 11.199 2.133 13.867 3.2 15.467 3.2 18.135 3.734 21.865 4.8 26.135 5.866 32.531 6.934 41.07 8.533 53.86 11.733 73.6 16 106.14 22.4 166.93 36.267 300.8 64.533 701.87 150.4 3403.2 732.264M856.534 373.866l6.934 1.6 7.467 1.067 8.533 2.133 10.133 1.6 10.668 2.667 12.265 2.133 14.401 3.2 16.533 3.2 19.734 3.734 22.932 4.8 28.266 5.866 34.13 6.934 44.27 8.533 57.07 11.733 78.4 16 113.06 22.4 177.6 36.267 320 64.533 747.2 150.4 3622.94 732.264M864.534 373.866l7.467 1.6 8 1.067 9.6 2.133 10.132 1.6 11.202 2.667 13.334 2.133 15.464 3.2 17.602 3.2 20.266 3.734 24.529 4.8 29.87 5.866 36.8 6.934 46.4 8.533 60.8 11.733 83.2 16 119.47 22.4 188.8 36.267 339.2 64.533 792.53 150.4 3842.67 732.264M873.067 373.866l7.467 1.6 9.067 1.067 9.601 2.133 10.666 1.6 12.266 2.667 13.867 2.133 16 3.2 18.666 3.2 21.867 3.734 25.596 4.8 31.47 5.866 38.93 6.934 49.07 8.533 64.53 11.733 87.47 16 126.93 22.4 198.94 36.267 358.93 64.533 837.87 150.4 4062.4 732.264M881.067 373.866l8.534 1.6 9.066 1.067 10.133 2.133 11.201 1.6 12.799 2.667 14.933 2.133 17.067 3.2 19.201 3.2 22.929 3.734 27.74 4.8 33.06 5.866 41.07 6.934 51.73 8.533 67.74 11.733 92.26 16 133.87 22.4 209.6 36.267 378.13 64.533 883.2 150.4 4281.61 732.264M889.601 373.866l8.533 1.6 9.599 1.067 10.668 2.133 11.733 1.6 13.867 2.667 15.467 2.133 17.599 3.2 20.801 3.2 24.002 3.734 28.8 4.8 34.66 5.866 43.2 6.934 54.4 8.533 71.47 11.733 97.07 16 140.26 22.4 220.8 36.267 397.34 64.533 929.06 150.4 4500.8 732.264M897.601 373.866l9.066 1.6 10.133 1.067 11.201 2.133 12.799 1.6 13.867 2.667 16.535 2.133 18.666 3.2 21.332 3.2 25.6 3.734 29.87 4.8 36.8 5.866 44.8 6.934 57.06 8.533 75.2 11.733 101.87 16 147.2 22.4 231.47 36.267 417.06 64.533 973.87 150.4 4720.53 732.264M905.601 373.866l9.601 1.6 10.666 1.067 11.733 2.133 13.334 1.6 14.933 2.667 17.067 2.133 19.195 3.2 22.94 3.2 26.13 3.734 31.47 4.8 38.4 5.866 47.46 6.934 59.74 8.533 77.86 11.733 106.67 16 154.13 22.4 242.67 36.267 436.27 64.533 1019.2 150.4 4940.26 732.264M914.134 373.866l10.135 1.6 10.666 1.067 12.267 2.133 13.865 1.6 15.467 2.667 18.133 2.133 20.263 3.2 23.47 3.2 27.73 3.734 33.07 4.8 40 5.866 49.07 6.934 62.4 8.533 81.6 11.733 111.46 16 161.07 22.4 252.8 36.267 456 64.533 1064.53 150.4L8537.6 1454.93M922.134 373.866l10.666 1.6 11.201 1.067 13.334 2.133 13.867 1.6 16.531 2.667 18.667 2.133 20.8 3.2 24.53 3.2 29.34 3.734 34.13 4.8 41.6 5.866 51.2 6.934 65.07 8.533 85.33 11.733 116.27 16 168 22.4 263.46 36.267 475.2 64.533 1109.87 150.4 5379.2 732.264M930.667 373.866l10.668 1.6 12.266 1.067 13.334 2.133 14.933 1.6 16.533 2.667 19.199 2.133 22.4 3.2 25.6 3.2 29.87 3.734 35.73 4.8 43.2 5.866 53.87 6.934 67.73 8.533 88.53 11.733 121.07 16 174.4 22.4 274.67 36.267 494.4 64.533 1155.2 150.4L9203.2 1454.93M938.667 373.866l11.201 1.6 12.799 1.067 13.867 2.133 15.467 1.6 17.599 2.667 19.73 2.133 22.94 3.2 26.66 3.2 31.47 3.734 36.8 4.8 45.33 5.866L1248 412.8l70.4 8.533 92.27 11.733 125.33 16 181.87 22.4 285.33 36.267 513.6 64.533 1200.53 150.4L9536 1454.93M947.202 373.866l11.733 1.6 12.798 1.067 14.401 2.133 15.996 1.6 18.14 2.667 20.8 2.133 24 3.2 27.73 3.2 32 3.734 38.93 4.8 46.4 5.866 57.6 6.934 73.07 8.533 96 11.733 130.13 16 188.27 22.4 296.53 36.267 532.8 64.533 1245.87 150.4 6037.87 732.264M955.202 373.866l12.266 1.6 13.332 1.067 14.933 2.133 16.537 1.6 19.2 2.667 21.33 2.133 24.53 3.2 28.8 3.2 33.6 3.734 40 4.8 48.54 5.866L1288 412.8l75.73 8.533 99.2 11.733 134.94 16 195.2 22.4 306.66 36.267 553.07 64.533 1290.67 150.4 6257.63 732.264M963.733 373.866l12.268 1.6 13.867 1.067 15.462 2.133 17.6 1.6 19.2 2.667 22.4 2.133 25.6 3.2 29.34 3.2 35.2 3.734 41.06 4.8 50.14 5.866 61.86 6.934 78.4 8.533 102.4 11.733 140.27 16 202.13 22.4 317.34 36.267 572.26 64.533 1336 150.4 6477.37 732.264M971.733 373.866l13.334 1.6 13.868 1.067 15.995 2.133 18.14 1.6 20.26 2.667 22.94 2.133 26.13 3.2 30.93 3.2 35.74 3.734 42.66 4.8 52.27 5.866 64 6.934 81.07 8.533 105.6 11.733 144.53 16 209.07 22.4 328.53 36.267 591.47 64.533 1381.33 150.4 6697.1 732.264M980.269 373.866l13.332 1.6 14.929 1.067 16.54 2.133 18.13 1.6 20.8 2.667 24 2.133 27.2 3.2 31.47 3.2L1184 395.2l44.27 4.8 53.33 5.866 66.13 6.934 83.74 8.533 109.33 11.733 149.33 16 216 22.4 339.2 36.267L2856 572.266l1426.67 150.4 6916.83 732.264M988.269 373.866l13.861 1.6 15.47 1.067 17.07 2.133 18.66 1.6 21.87 2.667 24.53 2.133 27.74 3.2 33.06 3.2 37.87 3.734 45.87 4.8 54.93 5.866 68.27 6.934 86.4 8.533 113.06 11.733 154.14 16 222.4 22.4 349.86 36.267 630.4 64.533 1472 150.4 7135.97 732.264M996.8 373.866l13.87 1.6 16 1.067 17.6 2.133 19.73 1.6 21.87 2.667 25.6 2.133 28.8 3.2 33.6 3.2 39.46 3.734 46.94 4.8 57.06 5.866 70.4 6.934 89.07 8.533 116.27 11.733 158.93 16 229.33 22.4 360.54 36.267 649.6 64.533 1517.86 150.4 7355.17 732.264M1004.8 373.866l14.93 1.6 16 1.067 18.14 2.133 20.26 1.6 22.94 2.667 25.6 2.133 29.86 3.2 34.67 3.2 41.07 3.734 48 4.8 58.66 5.866 72.54 6.934 91.73 8.533 120 11.733 163.2 16 236.8 22.4 371.2 36.267 668.8 64.533 1563.2 150.4 7574.9 732.264M1013.33 373.866l14.94 1.6 16.53 1.067 18.67 2.133 20.8 1.6 23.46 2.667 26.67 2.133 30.93 3.2 35.74 3.2 41.6 3.734 50.13 4.8 60.27 5.866 74.13 6.934 94.4 8.533 123.73 11.733 168 16 243.2 22.4 382.4 36.267 688 64.533 1608.54 150.4 7794.63 732.264M1021.33 373.866l15.47 1.6 17.07 1.067 19.2 2.133 21.33 1.6 24.53 2.667 27.2 2.133 32 3.2 36.27 3.2 43.2 3.734 51.2 4.8 61.87 5.866 76.8 6.934 97.06 8.533 126.4 11.733 173.34 16 250.13 22.4 393.07 36.267 707.73 64.533 1653.33 150.4 8013.87 732.264M1029.87 373.866l16 1.6 17.6 1.067 19.2 2.133 22.4 1.6 24.53 2.667 28.27 2.133 32.53 3.2 37.87 3.2L1272 395.2l52.8 4.8 64 5.866 78.4 6.934 99.73 8.533 130.14 11.733 178.13 16 256.53 22.4 403.74 36.267 727.46 64.533 1698.67 150.4 8233.6 732.264M1037.87 373.866l16.53 1.6 18.13 1.067 20.27 2.133 22.4 1.6 25.6 2.667 28.8 2.133 33.6 3.2 38.4 3.2 45.33 3.734 53.87 4.8 65.6 5.866 80.53 6.934 102.4 8.533 133.87 11.733 182.4 16 264 22.4 414.4 36.267 746.67 64.533 1744 150.4L13528 1454.93M1046.4 373.866l16.53 1.6 18.67 1.067 20.8 2.133 22.93 1.6 26.14 2.667 29.86 2.133 34.14 3.2 39.46 3.2 46.94 3.734 55.46 4.8 66.67 5.866 83.2 6.934 105.07 8.533 137.06 11.733 187.2 16 270.4 22.4 425.6 36.267 765.87 64.533 1789.33 150.4 8673.07 732.264M1054.4 373.866l17.07 1.6 19.2 1.067 21.33 2.133 23.47 1.6 27.2 2.667 30.4 2.133 35.2 3.2 40.53 3.2 47.47 3.734 57.06 4.8 68.8 5.866 84.8 6.934 107.74 8.533 140.8 11.733 192 16 277.33 22.4 436.27 36.267 785.06 64.533 1834.67 150.4 8892.3 732.264M1062.93 373.866l17.6 1.6 19.2 1.067 21.87 2.133 24.53 1.6 27.2 2.667 31.47 2.133 35.73 3.2 41.6 3.2 49.07 3.734 58.13 4.8 70.4 5.866 87.47 6.934 109.87 8.533 144.53 11.733 196.8 16 284.27 22.4 446.4 36.267 804.8 64.533 1880 150.4 9112.03 732.264M1070.93 373.866l18.14 1.6 19.73 1.067 22.4 2.133 25.07 1.6 28.26 2.667 32 2.133 36.8 3.2 42.67 3.2 50.13 3.734 59.2 4.8 72.54 5.866 89.06 6.934 113.07 8.533 147.73 11.733 201.07 16 291.2 22.4 457.6 36.267 824 64.533 1925.33 150.4 9331.77 732.264M1079.47 373.866l18.13 1.6 20.8 1.067 22.4 2.133 25.6 1.6 28.8 2.667 33.07 2.133 37.33 3.2 43.73 3.2 51.2 3.734 61.34 4.8 73.6 5.866 91.2 6.934 115.73 8.533 151.47 11.733 205.86 16 298.14 22.4 468.26 36.267 843.74 64.533L5640 722.666l9551.5 732.264M1087.47 373.866l19.2 1.6 20.8 1.067 22.93 2.133 26.13 1.6 29.87 2.667 33.07 2.133 38.93 3.2 44.27 3.2 52.8 3.734 62.4 4.8 75.73 5.866 93.33 6.934 117.87 8.533 154.67 11.733 211.2 16 304.53 22.4 479.47 36.267 862.93 64.533 2015.47 150.4 9770.63 732.264M1096 373.866l19.2 1.6 21.33 1.067 24 2.133 26.67 1.6 29.87 2.667 34.13 2.133 39.47 3.2 45.86 3.2 53.34 3.734 64 4.8 77.33 5.866 95.47 6.934 121.06 8.533 157.87 11.733 216 16 311.47 22.4 490.13 36.267 882.13 64.533 2060.8 150.4 9990.37 732.264M1104 373.866l19.73 1.6 21.87 1.067 24.53 2.133 27.2 1.6 30.94 2.667 34.66 2.133 40.54 3.2 46.4 3.2 54.93 3.734 65.07 4.8 78.93 5.866 97.6 6.934 123.73 8.533 161.6 11.733 220.27 16 318.93 22.4 500.27 36.267 901.87 64.533 2106.66 150.4L16189.3 1454.93M1112.53 373.866l19.74 1.6 22.4 1.067 25.06 2.133 27.74 1.6 31.46 2.667 35.74 2.133 41.06 3.2 48 3.2 56 3.734 66.67 4.8 80.53 5.866 99.74 6.934 125.86 8.533 165.34 11.733 225.06 16 325.34 22.4 511.46 36.267 921.07 64.533 2152 150.4 10429.3 732.264M1120.53 373.866l20.8 1.6 22.4 1.067 25.6 2.133 28.27 1.6 32.53 2.667 36.27 2.133 42.13 3.2 48.54 3.2 57.06 3.734 68.27 4.8 82.13 5.866 101.87 6.934 129.07 8.533L1984 433.066l229.87 16 332.26 22.4 522.14 36.267 940.26 64.533 2197.34 150.4L16854.4 1454.93M1129.07 373.866l20.8 1.6 23.46 1.067 25.6 2.133 29.34 1.6 32.53 2.667 37.33 2.133 42.67 3.2 49.6 3.2 58.67 3.734 69.33 4.8 84.27 5.866 103.46 6.934 131.74 8.533 172.26 11.733 234.67 16 338.67 22.4 533.33 36.267 959.47 64.533 2242.67 150.4L17187.2 1454.93" opacity=".4"/></g><defs><linearGradient id="b" x1="720.001" x2="720" y1="373.866" y2="1454.6" gradientUnits="userSpaceOnUse"><stop stop-opacity="0"/><stop offset=".1" stop-color="gray"/></linearGradient><clipPath id="a"><path fill="#fff" d="M0 0h1440v800H0z"/></clipPath></defs></svg>